<mxfile host="65bd71144e">
    <diagram id="jgWHq72rvJZlGo6y-WqA" name="Page-1">
        <mxGraphModel dx="1039" dy="986" grid="1" gridSize="10" guides="1" tooltips="1" connect="1" arrows="1" fold="1" page="0" pageScale="1" pageWidth="850" pageHeight="1100" math="0" shadow="0">
            <root>
                <mxCell id="0"/>
                <mxCell id="1" parent="0"/>
                <mxCell id="34" value="" style="rounded=0;whiteSpace=wrap;html=1;strokeColor=none;" vertex="1" parent="1">
                    <mxGeometry x="70" y="30" width="730" height="410" as="geometry"/>
                </mxCell>
                <mxCell id="32" value="Interacts with&lt;br&gt;map&amp;nbsp;and survey" style="edgeStyle=none;rounded=1;html=1;exitX=0.1;exitY=0.5;exitDx=0;exitDy=0;exitPerimeter=0;entryX=1;entryY=0.5;entryDx=0;entryDy=0;" parent="1" source="4" target="11" edge="1">
                    <mxGeometry x="-0.17" relative="1" as="geometry">
                        <mxPoint as="offset"/>
                    </mxGeometry>
                </mxCell>
                <mxCell id="4" value="" style="shape=actor;whiteSpace=wrap;html=1;" parent="1" vertex="1">
                    <mxGeometry x="670" y="160" width="40" height="60" as="geometry"/>
                </mxCell>
                <mxCell id="16" value="Feature&lt;br&gt;Services" style="edgeStyle=none;rounded=1;html=1;entryX=0;entryY=0.5;entryDx=0;entryDy=0;exitX=0.875;exitY=0.5;exitDx=0;exitDy=0;exitPerimeter=0;" parent="1" source="19" target="11" edge="1">
                    <mxGeometry x="-0.0063" relative="1" as="geometry">
                        <mxPoint x="437.90586902105633" y="168.31651628743725" as="sourcePoint"/>
                        <mxPoint as="offset"/>
                    </mxGeometry>
                </mxCell>
                <mxCell id="9" value="Fast Tracker Application" style="swimlane;whiteSpace=wrap;html=1;" parent="1" vertex="1">
                    <mxGeometry x="320" y="80" width="210" height="310" as="geometry"/>
                </mxCell>
                <mxCell id="17" value="Tabular survey data" style="edgeStyle=none;rounded=1;html=1;entryX=0.5;entryY=0;entryDx=0;entryDy=0;" parent="9" source="11" target="13" edge="1">
                    <mxGeometry relative="1" as="geometry"/>
                </mxCell>
                <mxCell id="11" value="Experience Builder / Survey123 Interface" style="rounded=0;whiteSpace=wrap;html=1;" parent="9" vertex="1">
                    <mxGeometry x="29.38" y="40" width="151.25" height="140" as="geometry"/>
                </mxCell>
                <mxCell id="13" value="Power Automate" style="rounded=0;whiteSpace=wrap;html=1;" parent="9" vertex="1">
                    <mxGeometry x="30.63" y="235" width="150" height="60" as="geometry"/>
                </mxCell>
                <mxCell id="18" value="ArcGIS Online Platform" style="swimlane;whiteSpace=wrap;html=1;" parent="1" vertex="1">
                    <mxGeometry x="120" y="80" width="140" height="200" as="geometry"/>
                </mxCell>
                <mxCell id="19" value="Data Storage" style="ellipse;shape=cloud;whiteSpace=wrap;html=1;" parent="18" vertex="1">
                    <mxGeometry x="10" y="70" width="120" height="80" as="geometry"/>
                </mxCell>
                <mxCell id="28" value="Generate&lt;br&gt;report" style="edgeStyle=none;rounded=1;html=1;entryX=0;entryY=0.5;entryDx=0;entryDy=0;" parent="1" source="13" target="33" edge="1">
                    <mxGeometry relative="1" as="geometry">
                        <mxPoint x="640" y="345" as="targetPoint"/>
                    </mxGeometry>
                </mxCell>
                <mxCell id="31" value="Sends Report&lt;br&gt;to User" style="edgeStyle=none;rounded=1;html=1;exitX=0.5;exitY=0;exitDx=0;exitDy=0;entryX=0.5;entryY=1;entryDx=0;entryDy=0;" parent="1" source="33" target="4" edge="1">
                    <mxGeometry relative="1" as="geometry">
                        <mxPoint x="680" y="297.5" as="sourcePoint"/>
                    </mxGeometry>
                </mxCell>
                <mxCell id="33" value="Outlook" style="rounded=0;whiteSpace=wrap;html=1;" parent="1" vertex="1">
                    <mxGeometry x="630" y="315" width="120" height="60" as="geometry"/>
                </mxCell>
            </root>
        </mxGraphModel>
    </diagram>
</mxfile>